<svg xmlns="http://www.w3.org/2000/svg" version="1.1" xmlns:xlink="http://www.w3.org/1999/xlink" xmlns:svgjs="http://svgjs.dev/svgjs" width="1000" height="1000" viewBox="0 0 1000 1000"><rect width="1000" height="1000" fill="#ffffff"></rect><g transform="matrix(0.7,0,0,0.7,149.57575904828997,428.3072379738941)"><svg viewBox="0 0 396 81" data-background-color="#046380" preserveAspectRatio="xMidYMid meet" height="204" width="1000" xmlns="http://www.w3.org/2000/svg" xmlns:xlink="http://www.w3.org/1999/xlink"><g id="tight-bounds" transform="matrix(1,0,0,1,0.23999958610875183,0.16606249379961469)"><svg viewBox="0 0 395.52 80.66787501240078" height="80.66787501240078" width="395.52"><g><svg viewBox="0 0 556.5339964375275 113.50731913626208" height="80.66787501240078" width="395.52"><g><rect width="10.185280775384543" height="113.50731913626208" x="124.16567698312596" y="0" fill="#000000" opacity="1" stroke-width="0" stroke="transparent" fill-opacity="1" class="rect-o-0" data-fill-palette-color="primary" rx="1%" id="o-0" data-palette-color="#ffffff"></rect></g><g transform="matrix(1,0,0,1,161.01399643752762,0.2823565152643255)"><svg viewBox="0 0 395.52 112.94260610573343" height="112.94260610573343" width="395.52"><g id="textblocktransform"><svg viewBox="0 0 395.52 112.94260610573343" height="112.94260610573343" width="395.52" id="textblock"><g><svg viewBox="0 0 395.52 112.94260610573343" height="112.94260610573343" width="395.52"><g transform="matrix(1,0,0,1,0,0)"><svg width="395.52" viewBox="2.2200000286102295 -36.11000061035156 131.13999938964844 37.45000076293945" height="112.94260610573343" data-palette-color="#ffffff"><path d="M4.32-1.76L4.32-1.76Q3.47-2.25 2.84-2.78 2.22-3.32 2.22-3.93L2.22-3.93Q2.22-5.1 3.22-5.1L3.22-5.1Q3.88-5.1 4.69-4.37 5.49-3.64 6.49-3.09 7.5-2.54 8.67-2.15L8.67-2.15Q11.08-1.34 13.13-1.34 15.19-1.34 16.3-1.61 17.41-1.88 18.16-2.34L18.16-2.34Q19.78-3.34 19.78-4.91L19.78-4.91Q19.78-6.35 18.38-7.81L18.38-7.81Q17.21-9.06 15.06-10.79L15.06-10.79 10.89-14.06Q4.61-18.9 3.49-22.9L3.49-22.9Q3.1-24.29 3.1-26 3.1-27.71 3.87-29.37 4.64-31.03 6.15-32.28L6.15-32.28Q9.4-34.99 14.99-34.99L14.99-34.99Q17.85-34.99 20.12-34.14 22.39-33.3 23.22-32.64 24.05-31.98 24.05-31.45L24.05-31.45Q24.05-30.32 23.12-30.32L23.12-30.32Q22.58-30.32 21.97-30.86 21.36-31.4 20.62-31.8 19.87-32.2 18.92-32.52L18.92-32.52Q16.87-33.2 14.89-33.2L14.89-33.2Q11.25-33.2 11.25-30.81L11.25-30.81Q11.25-29.81 11.91-28.96L11.91-28.96Q13.09-27.47 16.49-24.69 19.9-21.92 21.96-19.85 24.02-17.77 25.1-16.11L25.1-16.11Q26.81-13.5 26.81-10.68 26.81-7.86 25.82-5.9 24.83-3.93 23.05-2.51L23.05-2.51Q19.29 0.46 13.72 0.46 8.15 0.46 4.32-1.76ZM32.96 0L32.96-34.55 45.41-34.55 45.41 0 32.96 0ZM55.81-19.48L55.81-3.49 55.88-1.05Q55.88-0.42 55.54-0.07 55.2 0.27 54.72 0.27 54.24 0.27 53.93-0.05 53.61-0.37 53.61-0.74 53.61-1.12 53.67-1.45 53.73-1.78 53.78-2.2L53.78-2.2Q53.9-2.91 53.9-5.74L53.9-5.74 53.9-36.11 80.44-15.06 80.44-29.61Q80.44-31.27 80.34-31.98L80.34-31.98Q80.22-33.13 80.22-33.59L80.22-33.59Q80.22-34.81 81.27-34.81L81.27-34.81Q81.68-34.81 82.06-34.52 82.44-34.23 82.44-33.67L82.44-33.67 82.44-32.81 82.34-29.27 82.34 1.34 55.81-19.48ZM116.15-33.91L116.15-33.91Q116.15-32.79 113.79-32.79L113.79-32.79 108.12-32.79 108.12 0 95.62 0 95.62-32.79 91.96-32.79Q90.08-32.79 89.37-32.62L89.37-32.62Q88.44-32.42 88.03-32.42L88.03-32.42Q86.78-32.42 86.78-33.4L86.78-33.4Q86.78-34.55 89.2-34.55L89.2-34.55 110.98-34.55Q112.66-34.55 113.47-34.69L113.47-34.69Q114.45-34.86 114.93-34.86L114.93-34.86Q116.15-34.86 116.15-33.91ZM120.91 0L120.91-34.55 133.36-34.55 133.36 0 120.91 0Z" opacity="1" transform="matrix(1,0,0,1,0,0)" fill="#000000" class="wordmark-text-0" data-fill-palette-color="primary" id="text-0"></path></svg></g></svg></g></svg></g></svg></g><g transform="matrix(1,0,0,1,0,0.2823565152643255)"><svg viewBox="0 0 97.50263830410883 112.94260610573343" height="112.94260610573343" width="97.50263830410883"><g><svg xmlns="http://www.w3.org/2000/svg" xmlns:xlink="http://www.w3.org/1999/xlink" version="1.1" x="0" y="0" viewBox="9.63800048828125 3.246999979019165 80.7239990234375 93.50699615478516" enable-background="new 0 0 100 100" xml:space="preserve" height="112.94260610573343" width="97.50263830410883" class="icon-icon-0" data-fill-palette-color="accent" id="icon-0"><g fill="#ffffff" data-fill-palette-color="accent"><g fill="#ffffff" data-fill-palette-color="accent"><polygon points="36.703,11.011 9.638,26.636 9.638,38.757 36.703,23.131 63.767,38.757 63.767,26.636   " fill="#000000" data-fill-palette-color="accent"></polygon></g><g fill="#ffffff" data-fill-palette-color="accent"><polygon points="63.298,89.092 36.233,73.467 36.233,61.348 63.298,76.973 90.362,61.348 90.362,73.467   " fill="#000000" data-fill-palette-color="accent"></polygon></g><g fill="#ffffff" data-fill-palette-color="accent"><polygon points="9.638,42.012 36.703,26.386 47.198,32.446 20.134,48.072 20.134,79.324 9.638,73.264   " fill="#000000" data-fill-palette-color="accent"></polygon></g><g fill="#ffffff" data-fill-palette-color="accent"><polygon points="77.083,18.872 50.018,3.247 39.522,9.307 66.586,24.932 66.586,56.184 77.083,50.124   " fill="#000000" data-fill-palette-color="accent"></polygon></g><g fill="#ffffff" data-fill-palette-color="accent"><polygon points="23.01,81.127 23.011,49.876 33.507,43.816 33.507,75.068 60.571,90.693 50.075,96.754   " fill="#000000" data-fill-palette-color="accent"></polygon></g><g fill="#ffffff" data-fill-palette-color="accent"><polygon points="90.362,58.092 90.362,26.84 79.866,20.78 79.866,52.031 52.802,67.658 63.298,73.719   " fill="#000000" data-fill-palette-color="accent"></polygon></g></g></svg></g></svg></g></svg></g><defs></defs></svg><rect width="395.52" height="80.66787501240078" fill="none" stroke="none" visibility="hidden"></rect></g></svg></g></svg>